# This file uses centimeters as units for non-parametric coordinates.

mtllib bulb.mtl
g default
v -0.045527 -0.010729 0.045527
v 0.045527 -0.010729 0.045527
v -0.036672 0.075449 0.036672
v 0.036672 0.075449 0.036672
v -0.036672 0.075449 -0.036672
v 0.036672 0.075449 -0.036672
v -0.045527 -0.010729 -0.045527
v 0.045527 -0.010729 -0.045527
v -0.021648 -0.036926 -0.021648
v 0.021648 -0.036926 -0.021648
v 0.021648 -0.036926 0.021648
v -0.021648 -0.036926 0.021648
v -0.013088 -0.087552 -0.013088
v 0.013088 -0.087552 -0.013088
v 0.013088 -0.087552 0.013088
v -0.013088 -0.087552 0.013088
v 0.060703 -0.010729 0.000000
v -0.060703 -0.010729 0.000000
v 0.000000 -0.036926 -0.028864
v 0.028864 -0.036926 0.000000
v 0.000000 -0.036926 0.028864
v -0.028864 -0.036926 0.000000
v 0.017669 -0.066009 -0.017669
v -0.017669 -0.066009 -0.017669
v 0.017669 -0.066009 0.017669
v -0.017669 -0.066009 0.017669
v 0.000000 -0.010729 0.060703
v 0.049507 0.038778 0.049507
v 0.000000 0.088285 0.049507
v -0.049507 0.038778 0.049507
v 0.049507 0.088285 0.000000
v 0.000000 0.088285 -0.049507
v -0.049507 0.088285 0.000000
v 0.049507 0.038778 -0.049507
v 0.000000 -0.010729 -0.060703
v -0.049507 0.038778 -0.049507
v 0.000000 -0.095093 -0.017669
v 0.017669 -0.095093 0.000000
v 0.000000 -0.095093 0.017669
v -0.017669 -0.095093 0.000000
v 0.000000 0.038778 0.066009
v 0.000000 0.104787 0.000000
v 0.000000 0.038778 -0.066009
v 0.000000 -0.104787 0.000000
v 0.066009 0.038778 0.000000
v -0.066009 0.038778 0.000000
v 0.000000 -0.066009 -0.023558
v 0.023558 -0.066009 0.000000
v 0.000000 -0.066009 0.023558
v -0.023558 -0.066009 0.000000
vt 0.479042 0.463026
vt 0.722246 0.463026
vt 0.722246 0.727490
vt 0.457782 0.727490
vt 0.606602 0.323085
vt 0.722246 0.323085
vt 0.965450 0.463026
vt 0.986710 0.727490
vt 0.722246 0.991954
vt 0.526347 0.923389
vt 0.627862 0.167724
vt 0.722246 0.167724
vt 0.837890 0.323085
vt 0.918145 0.923389
vt 0.652331 0.052642
vt 0.722246 0.012363
vt 0.816630 0.167724
vt 0.792161 0.052642
vt 0.479042 0.463026
vt 0.722246 0.463026
vt 0.722246 0.727490
vt 0.457782 0.727490
vt 0.606602 0.323085
vt 0.722246 0.323085
vt 0.965450 0.463026
vt 0.986710 0.727490
vt 0.722246 0.991954
vt 0.526347 0.923389
vt 0.627862 0.167724
vt 0.722246 0.167724
vt 0.837891 0.323085
vt 0.918145 0.923389
vt 0.652332 0.052642
vt 0.722246 0.012363
vt 0.816631 0.167724
vt 0.792161 0.052642
vt 0.162261 0.021981
vt 0.367852 0.021945
vt 0.281354 0.269219
vt 0.034080 0.182721
vt 0.528593 0.150125
vt 0.528629 0.355717
vt 0.194857 0.516493
vt 0.034116 0.388313
vt 0.400448 0.516458
vt 0.172985 0.567250
vt 0.253002 0.567236
vt 0.219336 0.663476
vt 0.123096 0.629811
vt 0.315563 0.617125
vt 0.315577 0.697142
vt 0.185671 0.759717
vt 0.123110 0.709828
vt 0.265688 0.759703
vt 0.479043 0.463026
vt 0.722246 0.463026
vt 0.722246 0.727490
vt 0.457782 0.727490
vt 0.606602 0.323085
vt 0.722247 0.323085
vt 0.965450 0.463027
vt 0.986710 0.727491
vt 0.722246 0.991954
vt 0.526347 0.923389
vt 0.627862 0.167724
vt 0.722247 0.167724
vt 0.837891 0.323085
vt 0.918145 0.923389
vt 0.652333 0.052642
vt 0.722247 0.012363
vt 0.816631 0.167724
vt 0.792161 0.052642
vt 0.918145 0.923389
vt 0.722246 0.991954
vt 0.722246 0.727490
vt 0.986710 0.727490
vt 0.526347 0.923389
vt 0.457782 0.727490
vt 0.722246 0.463026
vt 0.965450 0.463026
vt 0.479042 0.463026
vt 0.722246 0.323085
vt 0.837891 0.323085
vt 0.606602 0.323085
vt 0.722247 0.167724
vt 0.816631 0.167724
vt 0.627862 0.167724
vt 0.722247 0.012363
vt 0.792161 0.052642
vt 0.652332 0.052642
vn -0.000000 -0.371948 0.928254
vn -0.000000 0.108001 0.994151
vn -0.648184 -0.399645 0.648184
vn -0.701199 0.128995 0.701199
vn 0.648184 -0.399645 0.648184
vn 0.701199 0.128995 0.701199
vn 0.577350 0.577350 0.577350
vn 0.000000 0.707107 0.707107
vn -0.577350 0.577350 0.577350
vn -0.000000 1.000000 -0.000000
vn -0.707107 0.707107 0.000000
vn 0.707107 0.707107 0.000000
vn 0.577350 0.577350 -0.577350
vn -0.000000 0.707107 -0.707107
vn -0.577350 0.577350 -0.577350
vn -0.000000 0.108001 -0.994151
vn -0.701199 0.128995 -0.701199
vn 0.701199 0.128995 -0.701199
vn 0.648184 -0.399645 -0.648184
vn 0.000000 -0.371948 -0.928254
vn -0.648184 -0.399645 -0.648184
vn -0.672246 -0.310114 -0.672246
vn 0.000000 -0.568281 -0.822834
vn -0.822834 -0.568281 0.000000
vn 0.000000 -1.000000 0.000000
vn 0.672246 -0.310114 -0.672246
vn 0.822834 -0.568281 0.000000
vn 0.000000 -0.568281 0.822834
vn 0.672246 -0.310114 0.672246
vn -0.672246 -0.310114 0.672246
vn 0.928254 -0.371948 0.000000
vn 0.994151 0.108001 0.000000
vn -0.928254 -0.371948 -0.000000
vn -0.994151 0.108001 -0.000000
vn -0.523561 -0.672137 -0.523561
vn 0.000000 -0.593140 -0.805099
vn 0.523561 -0.672137 -0.523560
vn 0.805099 -0.593140 0.000000
vn 0.523561 -0.672137 0.523561
vn -0.000000 -0.593140 0.805099
vn -0.523561 -0.672137 0.523560
vn -0.805099 -0.593140 0.000000
vn -0.688617 -0.227185 -0.688617
vn 0.000000 -0.206943 -0.978353
vn 0.688617 -0.227185 -0.688617
vn 0.978353 -0.206943 -0.000000
vn 0.688617 -0.227185 0.688617
vn 0.000000 -0.206943 0.978353
vn -0.688617 -0.227185 0.688617
vn -0.978353 -0.206943 0.000000
s 1
g pCube1
usemtl initialShadingGroup
f 27/56/1 41/57/2 1/55/3
f 1/55/3 41/57/2 30/58/4
f 27/56/1 2/61/5 41/57/2
f 41/57/2 2/61/5 28/62/6
f 28/62/6 4/68/7 41/57/2
f 41/57/2 4/68/7 29/63/8
f 30/58/4 41/57/2 3/64/9
f 3/64/9 41/57/2 29/63/8
f 29/38/8 42/39/10 3/37/9
f 3/37/9 42/39/10 33/40/11
f 29/38/8 4/41/7 42/39/10
f 42/39/10 4/41/7 31/42/12
f 31/42/12 6/45/13 42/39/10
f 42/39/10 6/45/13 32/43/14
f 33/40/11 42/39/10 5/44/15
f 5/44/15 42/39/10 32/43/14
f 32/74/14 43/75/16 5/73/15
f 5/73/15 43/75/16 36/76/17
f 32/74/14 6/77/13 43/75/16
f 43/75/16 6/77/13 34/78/18
f 34/78/18 8/81/19 43/75/16
f 43/75/16 8/81/19 35/79/20
f 36/76/17 43/75/16 7/80/21
f 7/80/21 43/75/16 35/79/20
f 13/46/22 37/47/23 40/49/24
f 40/49/24 37/47/23 44/48/25
f 14/50/26 38/51/27 37/47/23
f 37/47/23 38/51/27 44/48/25
f 44/48/25 38/51/27 39/52/28
f 39/52/28 38/51/27 15/54/29
f 44/48/25 39/52/28 40/49/24
f 40/49/24 39/52/28 16/53/30
f 17/2/31 45/3/32 2/1/5
f 2/1/5 45/3/32 28/4/6
f 17/2/31 8/7/19 45/3/32
f 45/3/32 8/7/19 34/8/18
f 34/8/18 6/14/13 45/3/32
f 45/3/32 6/14/13 31/9/12
f 28/4/6 45/3/32 4/10/7
f 4/10/7 45/3/32 31/9/12
f 18/20/33 46/21/34 7/19/21
f 7/19/21 46/21/34 36/22/17
f 18/20/33 1/25/3 46/21/34
f 46/21/34 1/25/3 30/26/4
f 30/26/4 3/32/9 46/21/34
f 46/21/34 3/32/9 33/27/11
f 36/22/17 46/21/34 5/28/15
f 5/28/15 46/21/34 33/27/11
f 7/80/21 35/79/20 9/83/35
f 9/83/35 35/79/20 19/82/36
f 8/81/19 10/84/37 35/79/20
f 35/79/20 10/84/37 19/82/36
f 8/7/19 17/2/31 10/13/37
f 10/13/37 17/2/31 20/6/38
f 2/1/5 11/5/39 17/2/31
f 17/2/31 11/5/39 20/6/38
f 2/61/5 27/56/1 11/67/39
f 11/67/39 27/56/1 21/60/40
f 1/55/3 12/59/41 27/56/1
f 27/56/1 12/59/41 21/60/40
f 1/25/3 18/20/33 12/31/41
f 12/31/41 18/20/33 22/24/42
f 7/19/21 9/23/35 18/20/33
f 18/20/33 9/23/35 22/24/42
f 9/83/35 19/82/36 24/86/43
f 24/86/43 19/82/36 47/85/44
f 10/84/37 23/87/45 19/82/36
f 19/82/36 23/87/45 47/85/44
f 23/87/45 14/90/26 47/85/44
f 47/85/44 14/90/26 37/88/23
f 24/86/43 47/85/44 13/89/22
f 13/89/22 47/85/44 37/88/23
f 10/13/37 20/6/38 23/17/45
f 23/17/45 20/6/38 48/12/46
f 11/5/39 25/11/47 20/6/38
f 20/6/38 25/11/47 48/12/46
f 25/11/47 15/15/29 48/12/46
f 48/12/46 15/15/29 38/16/27
f 23/17/45 48/12/46 14/18/26
f 14/18/26 48/12/46 38/16/27
f 11/67/39 21/60/40 25/71/47
f 25/71/47 21/60/40 49/66/48
f 12/59/41 26/65/49 21/60/40
f 21/60/40 26/65/49 49/66/48
f 26/65/49 16/69/30 49/66/48
f 49/66/48 16/69/30 39/70/28
f 25/71/47 49/66/48 15/72/29
f 15/72/29 49/66/48 39/70/28
f 12/31/41 22/24/42 26/35/49
f 26/35/49 22/24/42 50/30/50
f 9/23/35 24/29/43 22/24/42
f 22/24/42 24/29/43 50/30/50
f 24/29/43 13/33/22 50/30/50
f 50/30/50 13/33/22 40/34/24
f 26/35/49 50/30/50 16/36/30
f 16/36/30 50/30/50 40/34/24
