# Blender 3.3.0
# www.blender.org
o Cube
v 0.183308 0.144547 -0.019159
v 0.183308 -0.144547 -0.019159
v -0.183308 0.144547 -0.019159
v -0.183308 -0.144547 -0.019159
v 0.097174 -0.076626 0.164181
v 0.097174 0.076626 0.164181
v -0.097174 -0.076626 0.164181
v -0.097174 0.076626 0.164181
v 0.183308 0.144547 0.133468
v 0.183308 -0.144547 0.133468
v -0.183308 0.144547 0.133468
v -0.183308 -0.144547 0.133468
v -0.097174 0.076626 0.248508
v -0.097174 -0.076626 0.248508
v 0.097174 0.076626 0.248508
v 0.097174 -0.076626 0.248508
vn -0.0000 1.0000 -0.0000
vn -1.0000 -0.0000 -0.0000
vn -0.0000 -0.0000 -1.0000
vn -0.0000 -1.0000 -0.0000
vn 1.0000 -0.0000 -0.0000
vn -0.0000 0.4120 0.9112
vn 0.3359 -0.0000 0.9419
vn -0.0000 -0.4120 0.9112
vn -0.3359 -0.0000 0.9419
vn -0.0000 -0.0000 1.0000
vt 0.875000 0.500000
vt 0.625000 0.250000
vt 0.125000 0.500000
vt 0.375000 0.250000
vt 0.875000 0.750000
vt 0.625000 1.000000
vt 0.625000 0.000000
vt 0.375000 0.000000
vt 0.375000 1.000000
vt 0.125000 0.750000
vt 0.375000 0.500000
vt 0.625000 0.500000
vt 0.375000 0.750000
vt 0.625000 0.750000
vt 0.625000 0.500000
vt 0.375000 0.500000
vt 0.625000 0.750000
vt 0.375000 0.750000
vt 0.625000 0.750000
vt 0.375000 0.750000
vt 0.625000 0.500000
vt 0.375000 0.500000
s 1
f 1/1/1 11/17/1 9/15/1
f 3/6/2 12/18/2 11/17/2
f 3/7/3 2/4/3 4/8/3
f 10/16/4 4/10/4 2/3/4
f 1/2/5 10/16/5 2/4/5
f 7/13/2 13/19/2 8/14/2
f 11/17/6 6/12/6 9/15/6
f 9/15/7 5/11/7 10/16/7
f 10/16/8 7/13/8 12/18/8
f 12/18/9 8/14/9 11/17/9
f 15/21/10 14/20/10 16/22/10
f 8/14/1 15/21/1 6/12/1
f 6/12/5 16/22/5 5/11/5
f 5/11/4 14/20/4 7/13/4
f 1/1/1 3/5/1 11/17/1
f 3/6/2 4/9/2 12/18/2
f 3/7/3 1/2/3 2/4/3
f 10/16/4 12/18/4 4/10/4
f 1/2/5 9/15/5 10/16/5
f 7/13/2 14/20/2 13/19/2
f 11/17/6 8/14/6 6/12/6
f 9/15/7 6/12/7 5/11/7
f 10/16/8 5/11/8 7/13/8
f 12/18/9 7/13/9 8/14/9
f 15/21/10 13/19/10 14/20/10
f 8/14/1 13/19/1 15/21/1
f 6/12/5 15/21/5 16/22/5
f 5/11/4 16/22/4 14/20/4
